<svg width="18" height="18" viewBox="0 0 18 18" fill="none" xmlns="http://www.w3.org/2000/svg">
<circle cx="9" cy="9" r="8.5" fill="#009BDB" stroke="white"/>
<g clip-path="url(#clip0_1773_3088)">
<g clip-path="url(#clip1_1773_3088)">
<path d="M13.6065 7.75126C13.6081 7.77877 13.6061 7.80677 13.5991 7.83458L12.9823 10.3019C12.9512 10.4262 12.8398 10.5136 12.7117 10.5142L9.0108 10.5329C9.01032 10.5329 9.00987 10.5329 9.00938 10.5329H5.30841C5.17966 10.5329 5.06748 10.4452 5.03637 10.3203L4.41955 7.84367C4.41245 7.81511 4.41039 7.78632 4.41219 7.7581C4.17357 7.68292 4 7.45963 4 7.19649C4 6.87182 4.26411 6.6077 4.58879 6.6077C4.91346 6.6077 5.17757 6.87182 5.17757 7.19649C5.17757 7.37933 5.09379 7.54292 4.96262 7.65099L5.73488 8.42909C5.93006 8.62576 6.2009 8.73851 6.47798 8.73851C6.80561 8.73851 7.11798 8.58292 7.31469 8.32225L8.58385 6.6406C8.47723 6.53406 8.41121 6.38685 8.41121 6.22453C8.41121 5.89985 8.67533 5.63574 9 5.63574C9.32467 5.63574 9.58878 5.89985 9.58878 6.22453C9.58878 6.38199 9.52628 6.5249 9.42523 6.63066C9.42557 6.63111 9.42598 6.63148 9.42632 6.63197L10.6863 8.31825C10.8829 8.58142 11.1964 8.73855 11.525 8.73855C11.8046 8.73855 12.0676 8.62965 12.2653 8.43189L13.0424 7.65477C12.9084 7.54673 12.8224 7.38157 12.8224 7.19649C12.8224 6.87182 13.0865 6.6077 13.4112 6.6077C13.7359 6.6077 14 6.87182 14 7.19649C14 7.4526 13.8353 7.67043 13.6065 7.75126ZM12.9221 11.4114C12.9221 11.2566 12.7966 11.1311 12.6418 11.1311H5.38942C5.23458 11.1311 5.10905 11.2566 5.10905 11.4114V12.0843C5.10905 12.2392 5.23458 12.3647 5.38942 12.3647H12.6418C12.7966 12.3647 12.9221 12.2392 12.9221 12.0843V11.4114Z" fill="white"/>
</g>
</g>
<defs>
<clipPath id="clip0_1773_3088">
<rect width="10" height="10" fill="white" transform="translate(4 6)"/>
</clipPath>
<clipPath id="clip1_1773_3088">
<rect width="10" height="10" fill="white" transform="translate(4 4)"/>
</clipPath>
</defs>
</svg>
